<?xml version="1.0" encoding="UTF-8" standalone="no"?>
<!-- Created with Inkscape (http://www.inkscape.org/) -->

<svg
   version="1.1"
   id="svg1"
   width="40.959999"
   height="40.959999"
   viewBox="0 0 40.959999 40.959999"
   xmlns="http://www.w3.org/2000/svg"
   xmlns:svg="http://www.w3.org/2000/svg">
  <defs
     id="defs1" />
  <g
     id="layer2">
    <path
       style="fill:#165044"
       d="M 1.2677448,20.576474 C 1.1702362,11.300441 8.096359,-0.52420332 28.085423,3.7057156 43.643564,10.956468 38.404938,29.187914 36.959637,35.594374 15.239995,39.720151 0.91759309,37.222267 1.2677448,20.576474 Z"
       id="path2" />
    <path
       style="fill:#ffffff;stroke-width:0.921618"
       d="m 8.0686984,31.169813 0.165009,-2.786953 0.781058,-2.090224 c 0.429581,-1.149622 1.1512826,-2.449864 1.6037796,-2.889426 0.452499,-0.439561 1.216089,-0.879611 1.696872,-0.977887 0.48078,-0.09829 1.288454,-0.09399 1.794826,0.0096 0.532644,0.10888 1.256206,0.597596 1.716774,1.15957 l 0.796095,0.971375 0.413308,3.05956 c 0.227319,1.682759 0.549527,3.488065 0.716015,4.011792 0.16649,0.523728 0.457898,1.126261 0.647574,1.33896 0.189676,0.2127 0.25612,0.520367 0.147652,0.683701 -0.108469,0.163335 -0.996823,0.296974 -1.974126,0.296974 h -1.776914 l -0.139064,-3.141191 -0.139063,-3.1412 -0.517349,-0.48148 -0.517349,-0.481483 -0.529246,0.307614 c -0.291084,0.169188 -0.699176,0.61512 -0.906868,0.990963 -0.218352,0.395129 -0.379524,1.793341 -0.382131,3.315067 l -0.0045,2.631719 H 9.7823554 7.9036764 Z m 14.2919866,1.233112 v -0.984818 l 1.146391,-0.278077 c 0.630514,-0.152944 1.627874,-0.393302 2.216354,-0.534131 l 1.069965,-0.256054 -0.06298,-0.794009 c -0.03463,-0.436705 -0.21423,-1.472075 -0.399093,-2.300823 l -0.336116,-1.506812 -1.099864,0.427692 -1.099864,0.427692 -0.860575,-0.804445 -0.860576,-0.804445 4.883612,-1.254705 c 2.685988,-0.690088 4.962634,-1.181164 5.059213,-1.09128 0.09658,0.08988 0.02795,0.420196 -0.152527,0.734027 -0.180468,0.313832 -0.845056,0.723013 -1.47686,0.909292 -0.631808,0.186279 -1.320698,0.541075 -1.530869,0.788439 -0.236109,0.27789 -0.382129,1.350997 -0.382129,2.808288 v 2.358537 l 0.687833,0.149971 c 0.378309,0.08249 2.044256,0.404998 3.7021,0.716696 1.657846,0.311698 3.067907,0.566724 3.133466,0.566724 0.06556,0 0.1192,0.300031 0.1192,0.666733 v 0.666732 L 31.302528,33.2 c -2.648163,0.102214 -5.743416,0.186276 -6.878342,0.186797 l -2.063503,9.88e-4 z m 0.917113,-10.022119 c 0,-0.144014 0.453642,-0.671047 1.008093,-1.171185 0.55445,-0.500138 1.170717,-0.909341 1.369482,-0.909341 0.198765,0 0.914439,0.205944 1.590392,0.457657 0.67595,0.251711 1.229001,0.627172 1.229001,0.834357 0,0.207186 -0.24074,0.441512 -0.534981,0.520728 -0.29424,0.07922 -1.463559,0.230788 -2.598485,0.336828 -1.202841,0.112384 -2.063502,0.0836 -2.063502,-0.06905 z M 7.6349287,18.87535 c 0.3917643,-0.303858 1.2171657,-0.682973 1.8342247,-0.842478 0.6170606,-0.159506 1.4266116,-0.290724 1.7990046,-0.291597 0.372394,-9.06e-4 0.819486,-0.24923 0.993539,-0.551903 0.174052,-0.302675 0.316459,-0.688377 0.316459,-0.857117 0,-0.168742 -0.739448,-0.61115 -1.64322,-0.983132 l -1.6432176,-0.676328 -0.535221,-1.304293 -0.53522,-1.304293 0.14114,-1.583967 c 0.08627,-0.9681593 0.379582,-1.8835579 0.754455,-2.3545705 0.337322,-0.4238319 1.0526256,-1.0489652 1.5895646,-1.3891849 0.615216,-0.3898186 1.711468,-0.6918575 2.964304,-0.8167231 1.093428,-0.1089777 2.744202,-0.1397837 3.668384,-0.068457 0.924183,0.071328 1.814864,0.2548901 1.979292,0.407918 l 0.298959,0.2782319 -0.35144,0.9778256 C 19.072644,8.0530861 18.795299,8.6151127 18.649613,8.7642301 18.50393,8.9133476 17.371418,9.1254343 16.132922,9.235533 14.894426,9.3456281 13.460129,9.6383199 12.945594,9.8859483 12.431061,10.133578 11.91705,10.608966 11.803351,10.942366 l -0.206727,0.606182 0.884168,1.170802 0.884168,1.170801 1.6701,0.344459 1.670101,0.344458 0.687835,0.742645 c 0.418097,0.451416 0.687833,1.117005 0.687833,1.697274 v 0.95463 l -0.940567,0.736564 -0.940568,0.736568 -4.638531,-0.0094 -4.6385309,-0.0094 z M 22.774332,18.329662 C 22.17517,17.989645 21.6694,17.380724 21.433422,16.715274 l -0.378889,-1.068454 0.173076,-2.699869 0.173076,-2.699873 0.574322,-0.7347286 c 0.31588,-0.4041025 1.180079,-1.0227978 1.920445,-1.3748791 l 1.346123,-0.6401475 1.540169,0.00158 c 0.847095,8.725e-4 2.063203,0.1367591 2.702464,0.3019696 L 30.6465,8.101255 31.240863,9.0084535 c 0.340364,0.5195094 0.594853,1.4211305 0.595507,2.1098085 l 0.0011,1.20261 -0.687834,0.4099 c -0.37831,0.225445 -1.788369,0.561646 -3.133467,0.747114 -1.345098,0.185466 -2.694619,0.460679 -2.998936,0.611578 l -0.553304,0.274368 0.09475,0.754078 0.09475,0.754075 1.038747,0.649338 1.038747,0.649338 1.406886,-0.0091 c 0.773788,-0.005 1.673921,-0.197021 2.000298,-0.426763 0.326369,-0.229739 0.981739,-0.417713 1.456373,-0.417713 0.474634,0 1.326263,0.282641 1.89251,0.628091 l 1.029538,0.628091 -3.403034,0.645577 c -1.871666,0.355067 -4.297215,0.64808 -5.390108,0.651141 l -1.987076,0.0057 z m 4.91388,-5.873306 c 0.263963,-0.245664 0.56062,-0.745858 0.659239,-1.111542 0.09861,-0.365684 0.0252,-0.932865 -0.163149,-1.260401 -0.208146,-0.3619614 -0.643927,-0.5955197 -1.111141,-0.5955197 -0.422775,0 -1.174554,0.1953323 -1.670615,0.4340715 -0.536728,0.2583102 -0.901932,0.6615172 -0.901932,0.9957852 0,0.308944 0.13048,0.561714 0.289954,0.561714 0.159476,0 0.661046,0.320075 1.114604,0.711277 0.453559,0.391201 0.932304,0.711275 1.063879,0.711275 0.131575,0 0.455198,-0.200997 0.719161,-0.44666 z"
       id="path1" />
  </g>
</svg>
